<svg height="100%" stroke-miterlimit="10" style="fill-rule:nonzero;clip-rule:evenodd;stroke-linecap:round;stroke-linejoin:round;" version="1.1" viewBox="0 0 2721.6 2721.6" width="100%" xml:space="preserve" xmlns="http://www.w3.org/2000/svg" xmlns:vectornator="http://vectornator.io" xmlns:xlink="http://www.w3.org/1999/xlink">
<defs/>
<g id="layer1" vectornator:layerName="layer1">
<path d="M1169.47 1658.81L1169.47 1058.12L1736.16 1358.47L1169.47 1658.81ZM2050.1 1168.06C1962.83 1131.79 1914.1 1111.39 1914.1 1111.39L2076.17 1025.26C2284.71 916.451 2362.91 659.173 2252.98 451.765C2143.04 244.356 1885.76 165.019 1678.35 274.957L716.113 784.979C569.907 862.048 481.503 1016.19 489.437 1180.53C497.371 1341.47 594.841 1483.14 741.047 1548.88C744.448 1550.01 877.053 1605.55 877.053 1605.55L716.113 1690.55C508.704 1800.49 429.368 2057.76 539.306 2265.17C649.244 2472.58 906.521 2551.92 1113.93 2441.98L2077.3 1931.96C2223.51 1854.89 2310.78 1700.75 2302.85 1536.41C2294.91 1375.47 2196.31 1232.66 2050.1 1168.06ZM2024.03 1832.22L1060.66 2342.24C908.788 2422.71 719.513 2364.91 639.043 2213.04C558.573 2061.17 616.376 1871.89 768.249 1791.42L999.458 1669.02L999.458 1531.88L921.255 1500.14L795.45 1448.01C683.245 1401.54 608.442 1295 602.775 1174.86C597.108 1054.72 661.711 941.385 768.249 884.716L1731.62 374.695C1883.49 294.225 2072.77 352.027 2153.24 503.9C2233.71 655.773 2175.91 845.048 2024.03 925.518L1792.82 1047.92L1792.82 1185.06L1996.83 1268.93C2109.04 1315.4 2183.84 1421.94 2189.51 1542.08C2195.17 1662.22 2130.57 1775.55 2024.03 1832.22Z" fill="#000000" fill-rule="nonzero" opacity="1" stroke="none"/>
</g>
</svg>
